<svg width="14" height="15" viewBox="0 0 14 15" fill="none" xmlns="http://www.w3.org/2000/svg">
<path d="M10.9571 14.2383H2.04286C1.50106 14.2383 0.981449 14.0231 0.598339 13.6399C0.215229 13.2568 0 12.7372 0 12.1954V3.28114C0 2.73934 0.215229 2.21973 0.598339 1.83662C0.981449 1.45351 1.50106 1.23828 2.04286 1.23828H8.62457C8.77234 1.23828 8.91405 1.29698 9.01853 1.40146C9.12302 1.50595 9.18171 1.64766 9.18171 1.79542C9.18171 1.94319 9.12302 2.0849 9.01853 2.18938C8.91405 2.29387 8.77234 2.35257 8.62457 2.35257H2.04286C1.79658 2.35257 1.5604 2.4504 1.38626 2.62454C1.21212 2.79868 1.11429 3.03487 1.11429 3.28114V12.1954C1.11429 12.4417 1.21212 12.6779 1.38626 12.852C1.5604 13.0262 1.79658 13.124 2.04286 13.124H10.9571C11.2034 13.124 11.4396 13.0262 11.6137 12.852C11.7879 12.6779 11.8857 12.4417 11.8857 12.1954V6.468C11.8857 6.32023 11.9444 6.17852 12.0489 6.07404C12.1534 5.96955 12.2951 5.91085 12.4429 5.91085C12.5906 5.91085 12.7323 5.96955 12.8368 6.07404C12.9413 6.17852 13 6.32023 13 6.468V12.1954C13 12.7372 12.7848 13.2568 12.4017 13.6399C12.0186 14.0231 11.4989 14.2383 10.9571 14.2383Z" fill="#2E2E2E"/>
<path d="M6.71801 9.76221C6.57125 9.74934 6.43472 9.6711 6.33768 9.54425L4.0557 6.92879C4.00486 6.80678 3.98827 6.6697 4.00822 6.53643C4.02817 6.40316 4.08367 6.28026 4.1671 6.18464C4.25052 6.08903 4.35775 6.02541 4.47402 6.00255C4.5903 5.97968 4.7099 5.9987 4.81636 6.05697L6.6952 8.21037L13.1836 0.826045C13.2901 0.767772 13.4097 0.748759 13.526 0.771624C13.6423 0.794489 13.7495 0.858108 13.8329 0.95372C13.9163 1.04933 13.9718 1.17223 13.9918 1.3055C14.0117 1.43877 13.9951 1.57585 13.9443 1.69787L7.09835 9.54425C7.00131 9.6711 6.86478 9.74934 6.71801 9.76221Z" fill="#E37B00"/>
</svg>
