<svg width="24" height="24" viewBox="0 0 24 24" fill="none" xmlns="http://www.w3.org/2000/svg">
<path d="M14.6522 4.20618C14.6719 4.13232 14.7059 4.06307 14.7524 4.00238C14.7989 3.94169 14.8569 3.89075 14.9231 3.85249C14.9892 3.81422 15.0623 3.78938 15.1381 3.77937C15.2139 3.76937 15.2909 3.7744 15.3647 3.79418C16.7696 4.16064 18.0513 4.89502 19.0779 5.92166C20.1045 6.9483 20.8389 8.23009 21.2053 9.63497C21.2251 9.70881 21.2302 9.78582 21.2201 9.8616C21.2101 9.93739 21.1853 10.0105 21.147 10.0766C21.1088 10.1428 21.0578 10.2008 20.9972 10.2473C20.9365 10.2937 20.8672 10.3278 20.7933 10.3475C20.7443 10.3605 20.6938 10.3671 20.6431 10.3669C20.5149 10.367 20.3904 10.3247 20.2887 10.2467C20.187 10.1687 20.1139 10.0593 20.0808 9.93549C19.7662 8.72874 19.1355 7.62771 18.2537 6.74588C17.3719 5.86406 16.2709 5.23333 15.0642 4.91871C14.9903 4.89902 14.9211 4.86496 14.8604 4.81849C14.7997 4.77201 14.7488 4.71402 14.7105 4.64785C14.6722 4.58167 14.6474 4.50861 14.6374 4.43282C14.6274 4.35704 14.6324 4.28002 14.6522 4.20618ZM14.2887 8.02087C15.6992 8.39701 16.6026 9.30052 16.9788 10.711C17.0119 10.8348 17.0849 10.9442 17.1866 11.0222C17.2883 11.1003 17.4129 11.1425 17.541 11.1424C17.5917 11.1426 17.6423 11.1361 17.6913 11.123C17.7651 11.1033 17.8344 11.0693 17.8951 11.0228C17.9558 10.9763 18.0067 10.9183 18.045 10.8522C18.0832 10.786 18.1081 10.7129 18.1181 10.6371C18.1281 10.5614 18.123 10.4843 18.1033 10.4105C17.6186 8.59671 16.4029 7.38105 14.5892 6.89634C14.5154 6.87661 14.4384 6.87161 14.3626 6.88164C14.2868 6.89166 14.2138 6.91652 14.1476 6.95477C14.014 7.03204 13.9165 7.15922 13.8767 7.30835C13.8368 7.45747 13.8578 7.61631 13.9351 7.74994C14.0124 7.88356 14.1396 7.98102 14.2887 8.02087ZM21.9896 17.4243C21.8235 18.6916 21.2016 19.855 20.2402 20.6971C19.2787 21.5392 18.0436 22.0023 16.7655 22C9.17509 22 3.00001 15.8248 3.00001 8.23415C2.99756 6.95649 3.4603 5.72163 4.30179 4.76023C5.14328 3.79883 6.30597 3.17666 7.57267 3.00991C7.86426 2.97448 8.15948 3.0346 8.41399 3.18126C8.6685 3.32793 8.86856 3.5532 8.98412 3.82326L11.0295 8.38926C11.1199 8.59596 11.1572 8.82192 11.1383 9.0467C11.1193 9.27148 11.0446 9.48799 10.921 9.67665C10.9085 9.69586 10.8949 9.71431 10.8803 9.73191L8.83774 12.1613C8.82534 12.1865 8.81889 12.2142 8.81889 12.2422C8.81889 12.2703 8.82534 12.298 8.83774 12.3232C9.5803 13.8432 11.174 15.4253 12.7153 16.167C12.7411 16.1787 12.7692 16.1843 12.7975 16.1833C12.8257 16.1823 12.8534 16.1747 12.8782 16.1611L15.2716 14.1253C15.2887 14.1105 15.3069 14.0969 15.3259 14.0846C15.5137 13.9594 15.7298 13.883 15.9546 13.8624C16.1794 13.8417 16.4058 13.8775 16.6133 13.9664L21.1927 16.0186C21.4592 16.1367 21.6806 16.3375 21.8241 16.5912C21.9676 16.8448 22.0256 17.138 21.9896 17.4272V17.4243ZM20.837 17.2808C20.8402 17.2403 20.8306 17.1998 20.8096 17.165C20.7885 17.1302 20.7571 17.1029 20.7197 17.0869L16.1393 15.0347C16.1142 15.025 16.0874 15.0209 16.0606 15.0226C16.0339 15.0242 16.0078 15.0317 15.9842 15.0444L13.5917 17.0802C13.5742 17.0947 13.5558 17.1083 13.5374 17.1209C13.3422 17.251 13.1167 17.3283 12.8827 17.3453C12.6488 17.3623 12.4144 17.3184 12.2025 17.2178C10.4227 16.3579 8.6487 14.6004 7.78885 12.837C7.68771 12.6263 7.64269 12.3931 7.65815 12.1599C7.6736 11.9267 7.74901 11.7015 7.87706 11.506C7.88954 11.4865 7.90348 11.468 7.91875 11.4507L9.9603 9.02132C9.97197 8.99593 9.97801 8.96832 9.97801 8.94037C9.97801 8.91243 9.97197 8.88482 9.9603 8.85943L7.91875 4.28956C7.90527 4.25288 7.88103 4.22113 7.8492 4.19847C7.81737 4.17581 7.77944 4.16329 7.74038 4.16256H7.71808C6.73214 4.29372 5.82765 4.77925 5.1735 5.52851C4.51934 6.27776 4.16026 7.23951 4.16329 8.23415C4.16329 15.183 9.81683 20.8367 16.7655 20.8367C17.7603 20.8397 18.7221 20.4805 19.4713 19.8261C20.2206 19.1717 20.706 18.267 20.837 17.2808Z" fill="#2E2E2E"/>
</svg>
