<svg width="24" height="21" viewBox="0 0 24 21" fill="none" xmlns="http://www.w3.org/2000/svg">
<path d="M13 3.83333H16C16.5304 3.83333 17.0391 4.00893 17.4142 4.32149C17.7893 4.63405 18 5.05797 18 5.5V17.1667M2 17.1667H5M5 17.1667L11.758 18.5742C11.9054 18.6048 12.0592 18.6071 12.2078 18.5807C12.3564 18.5544 12.4958 18.5003 12.6155 18.4224C12.7352 18.3445 12.8321 18.2448 12.8987 18.1311C12.9653 18.0173 13 17.8924 13 17.7658V4.30167C12.9998 4.04849 12.9304 3.79784 12.797 3.57035C12.6637 3.34286 12.4699 3.14368 12.2303 2.98793C11.9908 2.83218 11.7118 2.72395 11.4146 2.67146C11.1174 2.61898 10.8098 2.6236 10.515 2.685L6.515 3.51833C6.08232 3.60846 5.69821 3.81652 5.42371 4.10944C5.1492 4.40237 5.00007 4.76334 5 5.135V17.1667ZM13 17.1667H22M10 10.5V10.5083" stroke="#2E2E2E" stroke-linecap="round" stroke-linejoin="round"/>
</svg>
