<svg width="23" height="23" viewBox="0 0 23 23" fill="none" xmlns="http://www.w3.org/2000/svg">
<path d="M21.0832 11.5003C21.0832 16.7932 16.7927 21.0837 11.4998 21.0837C6.20696 21.0837 1.9165 16.7932 1.9165 11.5003C1.9165 6.20745 6.20696 1.91699 11.4998 1.91699" stroke="#2E2E2E" stroke-linecap="round"/>
<path d="M6.229 10.542C6.77238 11.1457 7.43267 11.5003 8.14567 11.5003C8.85867 11.5003 9.51896 11.1457 10.0623 10.542M12.9373 10.542C13.4807 11.1457 14.141 11.5003 14.854 11.5003C15.567 11.5003 16.2273 11.1457 16.7707 10.542" stroke="#2E2E2E" stroke-linecap="round"/>
<path d="M11.9582 15.3333C11.9582 15.4549 11.9099 15.5715 11.8239 15.6574C11.738 15.7434 11.6214 15.7917 11.4998 15.7917C11.3783 15.7917 11.2617 15.7434 11.1757 15.6574C11.0898 15.5715 11.0415 15.4549 11.0415 15.3333C11.0415 15.2118 11.0898 15.0952 11.1757 15.0092C11.2617 14.9233 11.3783 14.875 11.4998 14.875C11.6214 14.875 11.738 14.9233 11.8239 15.0092C11.9099 15.0952 11.9582 15.2118 11.9582 15.3333Z" fill="black" stroke="#2E2E2E"/>
<path d="M16.2917 3.83366L19.6114 1.91699L18.2084 7.15333L21.5281 5.23666M13.4627 5.27116L15.1226 6.22949L12.5044 6.93099L14.1642 7.88933" stroke="#2E2E2E" stroke-linecap="round" stroke-linejoin="round"/>
</svg>
