<svg width="26" height="26" viewBox="0 0 26 26" fill="none" xmlns="http://www.w3.org/2000/svg">
<path d="M10.7118 2.47871C10.7118 1.66194 11.5939 1 12.6841 1C13.7733 1 14.6563 1.66194 14.6563 2.47871C14.6563 2.86194 14.4892 3.21188 14.1995 3.4751C13.6451 3.97833 12.8159 4.48543 12.8159 5.13885V5.35872M12.8159 5.35872C13.5028 5.34942 14.1769 5.5141 14.7492 5.83098L16.7141 6.93653M12.8159 5.35872C12.1349 5.36245 10.1309 6.61294 9.57129 6.93653" stroke="#2E2E2E" stroke-linecap="round"/>
<path d="M16.1371 6.41895C16.1371 6.41895 14.9168 6.77627 13 6.77627C11.0832 6.77627 9.86286 6.41895 9.86286 6.41895C9.67002 6.41895 9.47857 6.44613 9.29661 6.49934L1 8.92019L1.89089 12.8507L4.50946 13.0973C4.83014 13.1275 5.12544 13.2572 5.33673 13.4606C5.54802 13.664 5.65985 13.9262 5.65 14.1951L5.28571 24.9996H20.7143L20.35 14.1951C20.3402 13.9262 20.452 13.664 20.6633 13.4606C20.8746 13.2572 21.1699 13.1275 21.4905 13.0973L24.1091 12.8507L25 8.92019L16.7034 6.49934C16.5214 6.44613 16.33 6.41895 16.1371 6.41895Z" stroke="#2E2E2E" stroke-linecap="round" stroke-linejoin="round"/>
<path d="M17.1416 6.62793C16.8987 7.3891 16.3609 8.06201 15.6119 8.54205C14.863 9.02208 13.9447 9.28234 13 9.28234C12.0553 9.28234 11.1371 9.02208 10.3881 8.54205C9.63908 8.06201 9.10132 7.3891 8.8584 6.62793" stroke="#2E2E2E" stroke-linecap="round" stroke-linejoin="round"/>
</svg>
