<svg width="27" height="23" viewBox="0 0 27 23" fill="none" xmlns="http://www.w3.org/2000/svg">
<path d="M2.125 3.77219C3.56313 3.14781 5.62525 2.4745 7.6305 2.26525C9.79175 2.03912 11.6248 2.37156 12.6875 3.53425V19.9806C11.1681 19.0862 9.2425 18.9631 7.46638 19.1487C5.54888 19.3512 3.61513 19.9266 2.125 20.5173V3.77219ZM14.3125 3.53425C15.3752 2.37156 17.2083 2.03912 19.3695 2.26525C21.3748 2.4745 23.4369 3.14781 24.875 3.77219V20.5173C23.3833 19.9266 21.4511 19.3495 19.5336 19.1504C17.7559 18.9631 15.8319 19.0846 14.3125 19.9806V3.53425ZM13.5 2.00875C11.8994 0.579436 9.57888 0.366811 7.46638 0.586186C5.00613 0.844374 2.52313 1.72019 0.976125 2.45087C0.83418 2.51791 0.71381 2.62596 0.629384 2.7621C0.544958 2.89825 0.500043 3.05675 0.5 3.21869V21.7812C0.500038 21.9224 0.534185 22.0613 0.599315 22.1852C0.664445 22.3091 0.758475 22.4141 0.872793 22.4905C0.98711 22.5669 1.11806 22.6123 1.25365 22.6225C1.38924 22.6327 1.52513 22.6074 1.64888 22.549C3.08213 21.874 5.39125 21.0623 7.62888 20.8277C9.9185 20.5881 11.8376 20.9746 12.8663 22.3077C12.9424 22.4062 13.0389 22.4858 13.1485 22.5404C13.2582 22.5951 13.3783 22.6234 13.5 22.6234C13.6217 22.6234 13.7418 22.5951 13.8515 22.5404C13.9611 22.4858 14.0576 22.4062 14.1338 22.3077C15.1624 20.9746 17.0815 20.5881 19.3695 20.8277C21.6088 21.0623 23.9195 21.874 25.3511 22.549C25.4749 22.6074 25.6108 22.6327 25.7464 22.6225C25.8819 22.6123 26.0129 22.5669 26.1272 22.4905C26.2415 22.4141 26.3356 22.3091 26.4007 22.1852C26.4658 22.0613 26.5 21.9224 26.5 21.7812V3.21869C26.5 3.05675 26.455 2.89825 26.3706 2.7621C26.2862 2.62596 26.1658 2.51791 26.0239 2.45087C24.4769 1.72019 21.9939 0.844374 19.5336 0.586186C17.4211 0.365124 15.1006 0.579436 13.5 2.00875Z" fill="#F4F4F4"/>
</svg>
