<svg width="25" height="25" viewBox="0 0 25 25" fill="none" xmlns="http://www.w3.org/2000/svg">
<path d="M10.5733 5.62625C11.1403 5.53444 11.7219 5.65917 12.2019 5.97675C12.6697 6.28602 12.9669 6.73775 12.9759 7.20534L12.976 7.20667C12.9836 7.66472 12.7156 8.18585 11.9447 8.64266L11.9444 8.64284C11.2867 9.03188 10.9201 9.35686 10.7208 9.67631C10.5184 10.0034 10.4998 10.3081 10.4998 10.625C10.4998 10.6582 10.513 10.6899 10.5364 10.7134C10.5598 10.7368 10.5916 10.75 10.6248 10.75C10.6579 10.75 10.6897 10.7368 10.7132 10.7134C10.7366 10.6899 10.7498 10.6582 10.7498 10.625C10.7498 10.3254 10.7652 10.0747 10.9319 9.80779C11.099 9.53998 11.4235 9.24023 12.0703 8.85836C12.8897 8.37389 13.2352 7.7794 13.2236 7.19867L13.2236 7.19832C13.2127 6.62641 12.8518 6.10736 12.339 5.76833L12.3389 5.76827C11.7884 5.40409 11.1176 5.26879 10.469 5.39105C9.78976 5.52363 9.12473 5.95955 8.63959 6.81313L10.5733 5.62625ZM10.5733 5.62625H10.5664L10.5188 5.63554C9.91745 5.75313 9.30864 6.14003 8.85719 6.93741L9.29229 7.18375M10.5733 5.62625L10.6148 6.12625C10.1673 6.21375 9.67729 6.50375 9.29229 7.18375M9.29229 7.18375C9.25175 7.25516 9.19753 7.31788 9.13275 7.36833C9.06796 7.41879 8.99387 7.45599 8.91471 7.47781C8.83555 7.49963 8.75286 7.50565 8.67138 7.49551C8.58989 7.48538 8.5112 7.4593 8.43979 7.41875C8.36838 7.37821 8.30566 7.32399 8.25521 7.25921M9.29229 7.18375L8.85749 6.93687C8.84937 6.95118 8.83851 6.96374 8.82553 6.97385C8.81255 6.98396 8.7977 6.99142 8.78184 6.99579C8.76597 7.00016 8.74941 7.00137 8.73308 6.99934C8.71675 6.9973 8.70098 6.99208 8.68667 6.98395C8.67237 6.97583 8.6598 6.96497 8.64969 6.95199L8.25521 7.25921M8.25521 7.25921L8.64969 6.95199C8.63958 6.93901 8.63213 6.92416 8.62775 6.9083C8.62338 6.89244 8.62218 6.87587 8.62421 6.85954C8.62623 6.84327 8.63142 6.82756 8.6395 6.81329L8.25521 7.25921ZM3.24979 9.37459C3.24823 10.7303 3.62091 12.0603 4.32935 13.2169C4.32946 13.2171 4.32958 13.2173 4.32969 13.2174L4.3614 13.2695L3.23773 16.2103L3.03766 16.7339C3.00432 16.6695 2.98032 16.6004 2.96671 16.5284C2.94085 16.3919 2.95344 16.2509 3.00307 16.1211L3.00315 16.1209L3.9969 13.5184L4.08027 13.3L3.96621 13.096C3.31732 11.9354 2.98322 10.6253 2.99706 9.29563C3.0109 7.966 3.37221 6.66311 4.04512 5.51625C4.71803 4.3694 5.67916 3.41845 6.83311 2.75778C7.98707 2.09711 9.29373 1.74969 10.6234 1.75H10.6235L10.6245 1.75C10.6246 1.75 10.6246 1.75 10.6247 1.75C10.6247 1.75 10.6247 1.75 10.6248 1.75C11.7677 1.75059 12.8958 2.00809 13.9258 2.50346C14.9558 2.99886 15.8613 3.71949 16.5752 4.61204C17.2892 5.50459 17.7934 6.54623 18.0505 7.65992C18.3075 8.7736 18.311 9.93083 18.0605 11.046C17.81 12.1612 17.312 13.2058 16.6034 14.1026C15.8947 14.9994 14.9935 15.7253 13.9664 16.2268C12.9394 16.7283 11.8127 16.9925 10.6697 16.9998C9.52679 17.0072 8.39682 16.7575 7.36339 16.2692L7.19461 16.1894L7.01486 16.2398L3.90611 17.1111L3.90607 17.1111C3.77226 17.1486 3.63066 17.1482 3.49707 17.1099C3.42723 17.0899 3.36102 17.06 3.30035 17.0213L3.83964 16.8702L7.225 15.9221L7.26758 15.9441L7.26984 15.9453C8.70109 16.6764 10.332 16.92 11.9144 16.6389C13.4968 16.3579 14.9441 15.5676 16.0361 14.3884C17.1281 13.2092 17.8049 11.7055 17.9637 10.1062C18.1225 8.50687 17.7545 6.89947 16.9157 5.52854C16.0769 4.15761 14.8133 3.0982 13.317 2.51151C11.8207 1.92481 10.1738 1.84295 8.62672 2.27837C7.07966 2.7138 5.71717 3.64267 4.74657 4.92366C3.77602 6.2046 3.25044 7.7675 3.24979 9.37459ZM3.24979 9.37459C3.24979 9.37453 3.24979 9.37447 3.24979 9.37441L3.74979 9.375L3.24979 9.37482C3.24979 9.37474 3.24979 9.37467 3.24979 9.37459ZM14.326 20.75C15.4931 20.75 16.5987 20.4883 17.5867 20.0195L17.7557 19.9393L17.9359 19.9898L21.0455 20.8609L14.326 20.75ZM14.326 20.75C13.2293 20.7509 12.1452 20.5147 11.1483 20.0574C10.6451 19.8266 10.1701 19.5422 9.73109 19.2101C9.8892 19.2243 10.0477 19.2346 10.2065 19.2411C11.4223 20.0627 12.8576 20.5018 14.3273 20.5L14.326 20.75ZM17.7271 19.6721L17.6845 19.6941L17.6822 19.6953C16.6763 20.209 15.5363 20.4999 14.328 20.5L17.7271 19.6721ZM17.7271 19.6721L21.1124 20.6202L21.6503 20.7709C21.5898 20.8095 21.5238 20.8393 21.4542 20.8594C21.3209 20.8977 21.1795 20.8982 21.0459 20.861L17.7271 19.6721ZM21.7023 13.1257C21.7043 11.6869 21.2836 10.2804 20.494 9.08018C20.4894 8.92121 20.481 8.76245 20.4688 8.60404C20.7861 9.03447 21.058 9.49838 21.2792 9.98855C21.7239 10.9741 21.9534 12.0432 21.9523 13.1245V13.125C21.9523 14.4758 21.6004 15.7446 20.9846 16.846L20.8706 17.05L20.9539 17.2684L21.9477 19.8709L21.9477 19.8709C21.9972 20.0006 22.0098 20.1416 21.984 20.278C21.9705 20.3494 21.9467 20.4181 21.9137 20.4821L21.7144 19.9603L20.5907 17.0195L20.6226 16.9671C20.6227 16.967 20.6228 16.9668 20.6229 16.9667C21.3066 15.8484 21.7022 14.534 21.7023 13.1257ZM21.7023 13.1257L21.2023 13.125H21.7023C21.7023 13.1252 21.7023 13.1255 21.7023 13.1257ZM10.6267 13.7469L10.2731 14.1004L10.6267 13.7469C10.5446 13.6648 10.4985 13.5535 10.4985 13.4375C10.4985 13.3215 10.5446 13.2102 10.6267 13.1281L10.2731 12.7746L10.6267 13.1281C10.7087 13.0461 10.82 13 10.936 13C11.0521 13 11.1634 13.0461 11.2454 13.1281C11.3274 13.2102 11.3735 13.3215 11.3735 13.4375C11.3735 13.5535 11.3274 13.6648 11.2454 13.7469C11.1634 13.8289 11.0521 13.875 10.936 13.875C10.82 13.875 10.7087 13.8289 10.6267 13.7469Z" fill="black" stroke="#2E2E2E"/>
</svg>
