<svg width="54" height="32" viewBox="0 0 54 32" fill="none" xmlns="http://www.w3.org/2000/svg">
<path d="M14.4125 8.42705H14.5181C14.7412 7.37223 15.3868 6.64927 16.2673 6.64927C16.9716 6.64927 17.3473 7.05223 17.3473 7.53816C17.3473 8.08335 17.0068 8.45075 16.502 8.45075C16.0442 8.45075 15.7742 8.15446 15.7742 7.76335C15.7742 7.39594 16.009 7.1352 16.2673 7.05223C16.3494 7.02853 16.3729 7.00483 16.3729 6.95742C16.3729 6.92186 16.326 6.88631 16.1968 6.88631C15.3986 6.88631 14.6473 7.72779 14.6473 9.3989V11.947C14.6473 12.7174 14.6707 12.753 15.7507 12.8004C15.8447 12.8004 15.8799 12.8596 15.8799 12.9189C15.8799 12.9782 15.8447 13.0374 15.7507 13.0374C15.4103 13.0374 15.0699 13.0256 14.7177 13.0019C14.4007 12.99 14.0838 12.9782 13.9077 12.9782C13.7316 12.9782 13.4381 12.99 13.1564 13.0019C12.8512 13.0256 12.5577 13.0374 12.4051 13.0374C12.3229 13.0374 12.276 12.9782 12.276 12.9189C12.276 12.8596 12.3229 12.8004 12.4051 12.8004C13.1094 12.753 13.1681 12.7293 13.1681 11.947V8.04779C13.1681 7.20631 13.1094 7.17075 12.5577 7.17075H12.3581C12.276 7.17075 12.229 7.11149 12.229 7.05223C12.229 6.99297 12.276 6.93372 12.3581 6.93372C13.2855 6.93372 13.9547 6.87446 14.3773 6.73223C14.4477 6.70853 14.4594 6.70853 14.4947 6.70853C14.5651 6.70853 14.6238 6.75594 14.6238 6.8389C14.6238 6.88631 14.5886 7.08779 14.5534 7.24186C14.4947 7.52631 14.4477 7.97668 14.4125 8.42705ZM23.674 9.20927H19.7531C19.7296 9.43446 19.7179 9.65964 19.7179 9.88483C19.7179 10.9515 19.9174 11.947 20.4105 12.4804C20.6687 12.7648 21.0209 12.8833 21.3731 12.8833C22.6057 12.8833 23.1809 11.9945 23.4157 11.5441C23.4392 11.4967 23.4861 11.473 23.5213 11.473C23.5918 11.473 23.6622 11.5204 23.6622 11.5915C23.6622 11.627 23.6622 11.6508 23.6387 11.6863C23.2396 12.4093 22.5118 13.1559 21.1148 13.1559C19.7883 13.1559 18.1096 12.113 18.1096 10.11C18.1096 7.95297 19.7413 6.69668 21.197 6.69668C22.7113 6.69668 23.674 7.71594 23.674 9.03149V9.20927ZM19.7766 8.97223H21.9013C22.1596 8.97223 22.1948 8.91297 22.1948 8.67594C22.1948 8.15446 22.0657 7.59742 21.8309 7.30112C21.6431 7.04038 21.3379 6.93372 21.0913 6.93372C20.7744 6.93372 20.5161 7.01668 20.2813 7.32483C20.0348 7.65668 19.8587 8.28483 19.7766 8.97223ZM29.1614 6.8389L29.1262 7.17075C29.0792 7.53816 29.0558 8.01223 29.0558 8.53372C29.0558 8.62853 28.9971 8.66409 28.9384 8.66409C28.8797 8.66409 28.821 8.62853 28.821 8.56927C28.7505 7.73964 28.3279 6.93372 27.3418 6.93372C26.6727 6.93372 26.2736 7.46705 26.2736 8.02409C26.2736 8.85372 27.0131 9.11446 27.7997 9.38705C28.6684 9.6952 29.584 10.0152 29.584 11.1648C29.584 12.3382 28.5745 13.1441 27.2831 13.1441C26.6258 13.1441 26.1445 13.0493 25.5692 12.7293C25.4988 12.6937 25.4518 12.67 25.3931 12.67C25.2992 12.67 25.264 12.7648 25.2053 13.0256C25.1818 13.1085 25.1349 13.1441 25.0762 13.1441C25.0292 13.1441 24.9705 13.1085 24.9705 13.0374C24.9705 13.0137 24.9823 12.9426 25.0058 12.8004C25.0997 12.2433 25.1701 11.5915 25.1701 10.7026C25.1701 10.6196 25.2288 10.5841 25.2875 10.5841C25.3462 10.5841 25.4049 10.6196 25.4049 10.6908C25.5458 12.5041 26.4497 12.907 27.3301 12.907C28.0697 12.907 28.4571 12.4093 28.4571 11.8285C28.4571 11.0937 27.7997 10.8567 27.0718 10.5959C26.2031 10.2878 25.2288 9.94409 25.2288 8.64038C25.2288 7.4789 26.1679 6.69668 27.4475 6.69668C27.7997 6.69668 28.0814 6.79149 28.3045 6.87446C28.504 6.94557 28.6331 6.99297 28.7623 6.99297C28.8679 6.99297 28.9384 6.91001 28.9971 6.80334C29.0205 6.76779 29.044 6.75594 29.0792 6.75594C29.1262 6.75594 29.1614 6.79149 29.1614 6.8389ZM36.4357 9.20927H32.5148C32.4913 9.43446 32.4796 9.65964 32.4796 9.88483C32.4796 10.9515 32.6792 11.947 33.1722 12.4804C33.4305 12.7648 33.7826 12.8833 34.1348 12.8833C35.3674 12.8833 35.9426 11.9945 36.1774 11.5441C36.2009 11.4967 36.2479 11.473 36.2831 11.473C36.3535 11.473 36.4239 11.5204 36.4239 11.5915C36.4239 11.627 36.4239 11.6508 36.4005 11.6863C36.0013 12.4093 35.2735 13.1559 33.8765 13.1559C32.55 13.1559 30.8713 12.113 30.8713 10.11C30.8713 7.95297 32.5031 6.69668 33.9587 6.69668C35.4731 6.69668 36.4357 7.71594 36.4357 9.03149V9.20927ZM32.5383 8.97223H34.6631C34.9213 8.97223 34.9565 8.91297 34.9565 8.67594C34.9565 8.15446 34.8274 7.59742 34.5926 7.30112C34.4048 7.04038 34.0996 6.93372 33.8531 6.93372C33.5361 6.93372 33.2779 7.01668 33.0431 7.32483C32.7965 7.65668 32.6205 8.28483 32.5383 8.97223ZM39.9275 7.1826V11.39C39.9275 12.3619 40.221 12.6463 40.761 12.6463C41.207 12.6463 41.571 12.3263 41.7823 11.5441C41.794 11.4848 41.841 11.4611 41.8879 11.4611C41.9466 11.4611 42.0053 11.5085 42.0053 11.5796C42.0053 11.6863 41.6884 13.1559 40.2914 13.1559C39.3053 13.1559 38.4718 12.6463 38.4718 11.3663V7.98853C38.4718 7.33668 38.3662 7.17075 37.9318 7.17075H37.4975C37.4153 7.17075 37.3801 7.11149 37.3801 7.05223C37.3801 6.99297 37.4153 6.93372 37.4975 6.93372H37.6853C38.4953 6.93372 39.3992 6.38853 39.6927 4.95446C39.7044 4.87149 39.7631 4.83594 39.8101 4.83594C39.8688 4.83594 39.9275 4.88335 39.9275 4.96631V6.93372H41.5827C41.6766 6.93372 41.7236 6.99297 41.7236 7.05223C41.7236 7.12334 41.6766 7.1826 41.5827 7.1826H39.9275Z" fill="#3A486D"/>
<path d="M0 20.1484H54" stroke="#3A486D"/>
<path d="M12.0036 25.4107C11.9825 25.4747 11.9613 25.5707 11.9455 25.6453C11.8557 26.0933 11.7659 26.936 11.7659 27.6667C11.7659 28.36 11.9138 29 12.0775 29.5013L11.6919 29.6187C11.5387 29.144 11.3961 28.3867 11.3961 27.7093C11.3961 26.9787 11.5018 26.1147 11.5493 25.656C11.5599 25.56 11.5652 25.464 11.5652 25.3947L12.0036 25.4107ZM11.1531 26.0667C12.0828 26.0667 13.002 25.992 13.731 25.8267L13.7363 26.2213C12.9756 26.3547 11.9349 26.4347 11.1478 26.4347C10.9207 26.4347 10.5086 26.4133 10.292 26.4027L10.2815 26.0027C10.4664 26.0347 10.926 26.0667 11.1531 26.0667ZM13.3559 26.696C13.3242 26.7653 13.2767 26.9093 13.245 26.9947C12.9333 27.9813 12.4051 28.7227 11.8504 29.1547C11.5123 29.416 11.0897 29.6133 10.7147 29.6133C10.366 29.6133 10.0913 29.4 10.0913 28.9467C10.0913 28.216 10.7622 27.464 11.544 27.16C11.8979 27.0213 12.3258 26.9413 12.6692 26.9413C13.6676 26.9413 14.2962 27.528 14.2962 28.2747C14.2962 29.0373 13.7944 29.704 12.5688 29.9013L12.3417 29.544C13.2925 29.4373 13.8842 28.9413 13.8842 28.2533C13.8842 27.736 13.451 27.2827 12.6639 27.2827C12.2202 27.2827 11.8293 27.4107 11.5599 27.5333C10.9629 27.8 10.4875 28.3867 10.4875 28.8773C10.4875 29.096 10.5932 29.2027 10.7886 29.2027C11.0527 29.2027 11.3961 29.0533 11.7342 28.7547C12.2043 28.3387 12.6375 27.7627 12.8805 26.8987C12.9016 26.8187 12.928 26.6747 12.9333 26.5893L13.3559 26.696ZM17.8197 25.4373C17.788 25.5547 17.7511 25.7573 17.7299 25.8587C17.6507 26.2427 17.5398 26.8453 17.3918 27.3787C17.2017 28.136 16.8477 29.24 16.5678 29.8213L16.1082 29.6667C16.4251 29.112 16.7949 28.0293 16.9957 27.2773C17.1224 26.7867 17.2598 26.1147 17.2968 25.8373C17.3179 25.688 17.3285 25.5067 17.3179 25.3947L17.8197 25.4373ZM16.6523 26.328C17.2334 26.328 18.0099 26.232 18.665 26.0667V26.4827C18.0099 26.632 17.2122 26.7227 16.6417 26.7227C16.4093 26.7227 16.2244 26.7173 16.0289 26.7013L16.0184 26.2853C16.2667 26.3173 16.4568 26.328 16.6523 26.328ZM18.3216 27.0587C18.5963 27.032 18.9502 27.016 19.2883 27.016C19.5947 27.016 19.9169 27.0267 20.2022 27.0587L20.1916 27.464C19.9169 27.432 19.6105 27.4 19.2989 27.4C18.9714 27.4 18.6438 27.4213 18.3216 27.4587V27.0587ZM18.4272 28.3547C18.385 28.5307 18.3533 28.696 18.3533 28.8347C18.3533 29.0853 18.4959 29.3307 19.246 29.3307C19.5947 29.3307 19.9539 29.2933 20.2814 29.2293L20.2656 29.656C19.9803 29.6987 19.6264 29.7307 19.2408 29.7307C18.4114 29.7307 17.9571 29.4747 17.9571 28.9467C17.9571 28.744 17.9888 28.5413 18.0363 28.3173L18.4272 28.3547ZM24.3159 25.4C24.3054 25.4907 24.2948 25.5973 24.2895 25.7573C24.279 25.9707 24.279 26.6853 24.279 27.1333C24.279 27.8373 24.3582 28.7707 24.3582 29.128C24.3582 29.5013 24.1152 29.88 23.4285 29.88C22.6678 29.88 22.2504 29.608 22.2504 29.0907C22.2504 28.6053 22.71 28.28 23.4707 28.28C24.5854 28.28 25.457 28.888 25.8637 29.224L25.6207 29.6027C25.1453 29.16 24.3635 28.6267 23.4232 28.6267C22.916 28.6267 22.6466 28.824 22.6466 29.0693C22.6466 29.32 22.8527 29.5013 23.3756 29.5013C23.682 29.5013 23.9409 29.4107 23.9409 29.0373C23.9409 28.6267 23.888 27.6027 23.888 27.1333C23.888 26.6533 23.888 26.0933 23.888 25.72C23.888 25.6293 23.8828 25.4693 23.8669 25.4H24.3159ZM22.298 25.976C22.6361 26.04 23.2964 26.0933 23.645 26.0933C24.3159 26.0933 25.0238 26.0453 25.7105 25.9333V26.3227C25.1136 26.392 24.3582 26.4613 23.6503 26.4613C23.2858 26.4613 22.6361 26.4133 22.3033 26.3707L22.298 25.976ZM22.2716 27.112C22.6466 27.1707 23.2489 27.208 23.5975 27.208C24.3635 27.208 25.0661 27.1547 25.7528 27.0533V27.4533C25.0344 27.544 24.3899 27.5813 23.5975 27.5813C23.233 27.5813 22.6519 27.5547 22.2769 27.512L22.2716 27.112ZM31.0882 26.0027C31.0882 26.392 31.0882 26.904 31.0882 27.2347C31.0882 27.9067 31.1569 28.6533 31.1569 29.0747C31.1569 29.512 30.8558 29.7627 30.2906 29.7627C29.7042 29.7627 29.2763 29.5173 29.2763 29.016C29.2763 28.6427 29.5827 28.2853 30.2853 28.2853C31.2203 28.2853 31.8595 28.7493 32.2557 29.1067L32.0338 29.48C31.532 28.9573 30.8981 28.6053 30.2747 28.6053C29.8944 28.6053 29.6461 28.76 29.6461 28.9947C29.6461 29.256 29.8838 29.3947 30.2536 29.3947C30.6656 29.3947 30.7713 29.1813 30.7713 28.8933C30.7713 28.5947 30.7079 27.8053 30.7079 27.2507C30.7079 26.872 30.7079 26.296 30.7079 26.0027H31.0882ZM29.4295 27.0427C30.3804 27.1173 31.3524 27.0533 32.0708 26.968V27.3573C31.3946 27.432 30.3751 27.4853 29.4348 27.432L29.4295 27.0427ZM29.514 25.8053C30.3645 25.8747 31.3365 25.8213 31.9546 25.7307V26.1093C31.3471 26.1733 30.3698 26.2267 29.514 26.184V25.8053ZM28.6054 25.5867C28.5737 25.6773 28.5315 25.848 28.5156 25.944C28.41 26.44 28.2568 27.4693 28.2568 28.0667C28.2568 28.328 28.2726 28.5573 28.3096 28.8187C28.3888 28.5787 28.5209 28.2373 28.616 28.024L28.8273 28.2C28.6952 28.568 28.5103 29.1173 28.4522 29.3787C28.4364 29.4533 28.4258 29.5547 28.4311 29.6133C28.4311 29.6667 28.4417 29.7467 28.4469 29.8L28.0666 29.832C27.9609 29.448 27.8659 28.8613 27.8659 28.1413C27.8659 27.3573 28.0402 26.3653 28.1036 25.9227C28.1247 25.8 28.1405 25.656 28.1405 25.544L28.6054 25.5867ZM36.6033 26.6C36.7406 26.7973 36.9572 27.1813 37.0629 27.3787L36.7723 27.5067C36.6614 27.2933 36.4607 26.9253 36.3286 26.7173L36.6033 26.6ZM37.2214 26.3547C37.3587 26.5413 37.5753 26.9093 37.6915 27.1227L37.401 27.2507C37.2795 27.0267 37.084 26.6853 36.9414 26.488L37.2214 26.3547ZM36.878 25.6987C36.767 25.784 36.6033 25.928 36.5135 26.0027C36.1543 26.3227 35.3936 26.9253 35.0027 27.256C34.6857 27.5333 34.6804 27.6133 35.0238 27.9013C35.5045 28.3013 36.4342 29.0587 36.9942 29.6293L36.6191 29.976C36.5082 29.848 36.3867 29.72 36.2599 29.5867C35.8849 29.2027 35.0819 28.5093 34.5906 28.0987C34.0888 27.6773 34.1522 27.448 34.6276 27.0427C35.0291 26.7067 35.8267 26.0667 36.186 25.704C36.2863 25.5973 36.4237 25.4427 36.4871 25.3467L36.878 25.6987ZM40.9984 25.4747C40.972 25.6507 40.9562 25.8373 40.9456 26.0133C40.9245 26.616 40.8822 27.88 40.8822 28.6747C40.8822 29.2613 41.2467 29.464 41.7486 29.464C42.7153 29.464 43.2647 28.92 43.645 28.3653L43.9408 28.728C43.5816 29.2347 42.8949 29.9013 41.738 29.9013C40.9773 29.9013 40.4543 29.5867 40.4543 28.712C40.4543 27.9227 40.5071 26.5733 40.5071 26.0133C40.5071 25.816 40.4913 25.6293 40.4596 25.4747H40.9984Z" fill="#3A486D"/>
</svg>
