<svg width="90" height="90" viewBox="0 0 90 90" fill="none" xmlns="http://www.w3.org/2000/svg">
<rect width="90" height="90" fill="#3A486D"/>
<path d="M22 47H68.0109" stroke="#EFEEEA"/>
<path d="M32.2305 51.4405C32.2125 51.4945 32.1945 51.5755 32.181 51.6385C32.1045 52.0165 32.028 52.7275 32.028 53.344C32.028 53.929 32.154 54.469 32.2935 54.892L31.965 54.991C31.8345 54.5905 31.713 53.9515 31.713 53.38C31.713 52.7635 31.803 52.0345 31.8435 51.6475C31.8525 51.5665 31.857 51.4855 31.857 51.427L32.2305 51.4405ZM31.506 51.994C32.298 51.994 33.081 51.931 33.702 51.7915L33.7065 52.1245C33.0585 52.237 32.172 52.3045 31.5015 52.3045C31.308 52.3045 30.957 52.2865 30.7725 52.2775L30.7635 51.94C30.921 51.967 31.3125 51.994 31.506 51.994ZM33.3825 52.525C33.3555 52.5835 33.315 52.705 33.288 52.777C33.0225 53.6095 32.5725 54.235 32.1 54.5995C31.812 54.82 31.452 54.9865 31.1325 54.9865C30.8355 54.9865 30.6015 54.8065 30.6015 54.424C30.6015 53.8075 31.173 53.173 31.839 52.9165C32.1405 52.7995 32.505 52.732 32.7975 52.732C33.648 52.732 34.1835 53.227 34.1835 53.857C34.1835 54.5005 33.756 55.063 32.712 55.2295L32.5185 54.928C33.3285 54.838 33.8325 54.4195 33.8325 53.839C33.8325 53.4025 33.4635 53.02 32.793 53.02C32.415 53.02 32.082 53.128 31.8525 53.2315C31.344 53.4565 30.939 53.9515 30.939 54.3655C30.939 54.55 31.029 54.64 31.1955 54.64C31.4205 54.64 31.713 54.514 32.001 54.262C32.4015 53.911 32.7705 53.425 32.9775 52.696C32.9955 52.6285 33.018 52.507 33.0225 52.435L33.3825 52.525ZM37.185 51.463C37.158 51.562 37.1265 51.733 37.1085 51.8185C37.041 52.1425 36.9465 52.651 36.8205 53.101C36.6585 53.74 36.357 54.6715 36.1185 55.162L35.727 55.0315C35.997 54.5635 36.312 53.65 36.483 53.0155C36.591 52.6015 36.708 52.0345 36.7395 51.8005C36.7575 51.6745 36.7665 51.5215 36.7575 51.427L37.185 51.463ZM36.1905 52.2145C36.6855 52.2145 37.347 52.1335 37.905 51.994V52.345C37.347 52.471 36.6675 52.5475 36.1815 52.5475C35.9835 52.5475 35.826 52.543 35.6595 52.5295L35.6505 52.1785C35.862 52.2055 36.024 52.2145 36.1905 52.2145ZM37.6125 52.831C37.8465 52.8085 38.148 52.795 38.436 52.795C38.697 52.795 38.9715 52.804 39.2145 52.831L39.2055 53.173C38.9715 53.146 38.7105 53.119 38.445 53.119C38.166 53.119 37.887 53.137 37.6125 53.1685V52.831ZM37.7025 53.9245C37.6665 54.073 37.6395 54.2125 37.6395 54.3295C37.6395 54.541 37.761 54.748 38.4 54.748C38.697 54.748 39.003 54.7165 39.282 54.6625L39.2685 55.0225C39.0255 55.0585 38.724 55.0855 38.3955 55.0855C37.689 55.0855 37.302 54.8695 37.302 54.424C37.302 54.253 37.329 54.082 37.3695 53.893L37.7025 53.9245ZM42.7188 51.4315C42.7098 51.508 42.7008 51.598 42.6963 51.733C42.6873 51.913 42.6873 52.516 42.6873 52.894C42.6873 53.488 42.7548 54.2755 42.7548 54.577C42.7548 54.892 42.5478 55.2115 41.9628 55.2115C41.3148 55.2115 40.9593 54.982 40.9593 54.5455C40.9593 54.136 41.3508 53.8615 41.9988 53.8615C42.9483 53.8615 43.6908 54.3745 44.0373 54.658L43.8303 54.9775C43.4253 54.604 42.7593 54.154 41.9583 54.154C41.5263 54.154 41.2968 54.3205 41.2968 54.5275C41.2968 54.739 41.4723 54.892 41.9178 54.892C42.1788 54.892 42.3993 54.8155 42.3993 54.5005C42.3993 54.154 42.3543 53.29 42.3543 52.894C42.3543 52.489 42.3543 52.0165 42.3543 51.7015C42.3543 51.625 42.3498 51.49 42.3363 51.4315H42.7188ZM40.9998 51.9175C41.2878 51.9715 41.8503 52.0165 42.1473 52.0165C42.7188 52.0165 43.3218 51.976 43.9068 51.8815V52.21C43.3983 52.2685 42.7548 52.327 42.1518 52.327C41.8413 52.327 41.2878 52.2865 41.0043 52.2505L40.9998 51.9175ZM40.9773 52.876C41.2968 52.9255 41.8098 52.957 42.1068 52.957C42.7593 52.957 43.3578 52.912 43.9428 52.8265V53.164C43.3308 53.2405 42.7818 53.272 42.1068 53.272C41.7963 53.272 41.3013 53.2495 40.9818 53.2135L40.9773 52.876ZM48.4878 51.94C48.4878 52.2685 48.4878 52.7005 48.4878 52.9795C48.4878 53.5465 48.5463 54.1765 48.5463 54.532C48.5463 54.901 48.2898 55.1125 47.8083 55.1125C47.3088 55.1125 46.9443 54.9055 46.9443 54.4825C46.9443 54.1675 47.2053 53.866 47.8038 53.866C48.6003 53.866 49.1448 54.2575 49.4823 54.559L49.2933 54.874C48.8658 54.433 48.3258 54.136 47.7948 54.136C47.4708 54.136 47.2593 54.2665 47.2593 54.4645C47.2593 54.685 47.4618 54.802 47.7768 54.802C48.1278 54.802 48.2178 54.622 48.2178 54.379C48.2178 54.127 48.1638 53.461 48.1638 52.993C48.1638 52.6735 48.1638 52.1875 48.1638 51.94H48.4878ZM47.0748 52.8175C47.8848 52.8805 48.7128 52.8265 49.3248 52.7545V53.083C48.7488 53.146 47.8803 53.191 47.0793 53.146L47.0748 52.8175ZM47.1468 51.7735C47.8713 51.832 48.6993 51.787 49.2258 51.7105V52.03C48.7083 52.084 47.8758 52.129 47.1468 52.093V51.7735ZM46.3728 51.589C46.3458 51.6655 46.3098 51.8095 46.2963 51.8905C46.2063 52.309 46.0758 53.1775 46.0758 53.6815C46.0758 53.902 46.0893 54.0955 46.1208 54.316C46.1883 54.1135 46.3008 53.8255 46.3818 53.6455L46.5618 53.794C46.4493 54.1045 46.2918 54.568 46.2423 54.7885C46.2288 54.8515 46.2198 54.937 46.2243 54.9865C46.2243 55.0315 46.2333 55.099 46.2378 55.144L45.9138 55.171C45.8238 54.847 45.7428 54.352 45.7428 53.7445C45.7428 53.083 45.8913 52.246 45.9453 51.8725C45.9633 51.769 45.9768 51.6475 45.9768 51.553L46.3728 51.589ZM53.1858 52.444C53.3028 52.6105 53.4873 52.9345 53.5773 53.101L53.3298 53.209C53.2353 53.029 53.0643 52.7185 52.9518 52.543L53.1858 52.444ZM53.7123 52.237C53.8293 52.3945 54.0138 52.705 54.1128 52.885L53.8653 52.993C53.7618 52.804 53.5953 52.516 53.4738 52.3495L53.7123 52.237ZM53.4198 51.6835C53.3253 51.7555 53.1858 51.877 53.1093 51.94C52.8033 52.21 52.1553 52.7185 51.8223 52.9975C51.5523 53.2315 51.5478 53.299 51.8403 53.542C52.2498 53.8795 53.0418 54.5185 53.5188 55L53.1993 55.2925C53.1048 55.1845 53.0013 55.0765 52.8933 54.964C52.5738 54.64 51.8898 54.055 51.4713 53.7085C51.0438 53.353 51.0978 53.1595 51.5028 52.8175C51.8448 52.534 52.5243 51.994 52.8303 51.688C52.9158 51.598 53.0328 51.4675 53.0868 51.3865L53.4198 51.6835ZM56.9298 51.4945C56.9073 51.643 56.8938 51.8005 56.8848 51.949C56.8668 52.4575 56.8308 53.524 56.8308 54.1945C56.8308 54.6895 57.1413 54.8605 57.5688 54.8605C58.3923 54.8605 58.8603 54.4015 59.1843 53.9335L59.4363 54.2395C59.1303 54.667 58.5453 55.2295 57.5598 55.2295C56.9118 55.2295 56.4663 54.964 56.4663 54.226C56.4663 53.56 56.5113 52.4215 56.5113 51.949C56.5113 51.7825 56.4978 51.625 56.4708 51.4945H56.9298Z" fill="#EFEEEA"/>
<path d="M34.2772 37.11H34.3672C34.5572 36.22 35.1072 35.61 35.8572 35.61C36.4572 35.61 36.7772 35.95 36.7772 36.36C36.7772 36.82 36.4872 37.13 36.0572 37.13C35.6672 37.13 35.4372 36.88 35.4372 36.55C35.4372 36.24 35.6372 36.02 35.8572 35.95C35.9272 35.93 35.9472 35.91 35.9472 35.87C35.9472 35.84 35.9072 35.81 35.7972 35.81C35.1172 35.81 34.4772 36.52 34.4772 37.93V40.08C34.4772 40.73 34.4972 40.76 35.4172 40.8C35.4972 40.8 35.5272 40.85 35.5272 40.9C35.5272 40.95 35.4972 41 35.4172 41C35.1272 41 34.8372 40.99 34.5372 40.97C34.2672 40.96 33.9972 40.95 33.8472 40.95C33.6972 40.95 33.4472 40.96 33.2072 40.97C32.9472 40.99 32.6972 41 32.5672 41C32.4972 41 32.4572 40.95 32.4572 40.9C32.4572 40.85 32.4972 40.8 32.5672 40.8C33.1672 40.76 33.2172 40.74 33.2172 40.08V36.79C33.2172 36.08 33.1672 36.05 32.6972 36.05H32.5272C32.4572 36.05 32.4172 36 32.4172 35.95C32.4172 35.9 32.4572 35.85 32.5272 35.85C33.3172 35.85 33.8872 35.8 34.2472 35.68C34.3072 35.66 34.3172 35.66 34.3472 35.66C34.4072 35.66 34.4572 35.7 34.4572 35.77C34.4572 35.81 34.4272 35.98 34.3972 36.11C34.3472 36.35 34.3072 36.73 34.2772 37.11ZM42.1666 37.77H38.8266C38.8066 37.96 38.7966 38.15 38.7966 38.34C38.7966 39.24 38.9666 40.08 39.3866 40.53C39.6066 40.77 39.9066 40.87 40.2066 40.87C41.2566 40.87 41.7466 40.12 41.9466 39.74C41.9666 39.7 42.0066 39.68 42.0366 39.68C42.0966 39.68 42.1566 39.72 42.1566 39.78C42.1566 39.81 42.1566 39.83 42.1366 39.86C41.7966 40.47 41.1766 41.1 39.9866 41.1C38.8566 41.1 37.4266 40.22 37.4266 38.53C37.4266 36.71 38.8166 35.65 40.0566 35.65C41.3466 35.65 42.1666 36.51 42.1666 37.62V37.77ZM38.8466 37.57H40.6566C40.8766 37.57 40.9066 37.52 40.9066 37.32C40.9066 36.88 40.7966 36.41 40.5966 36.16C40.4366 35.94 40.1766 35.85 39.9666 35.85C39.6966 35.85 39.4766 35.92 39.2766 36.18C39.0666 36.46 38.9166 36.99 38.8466 37.57ZM46.8411 35.77L46.8111 36.05C46.7711 36.36 46.7511 36.76 46.7511 37.2C46.7511 37.28 46.7011 37.31 46.6511 37.31C46.6011 37.31 46.5511 37.28 46.5511 37.23C46.4911 36.53 46.1311 35.85 45.2911 35.85C44.7211 35.85 44.3811 36.3 44.3811 36.77C44.3811 37.47 45.0111 37.69 45.6811 37.92C46.4211 38.18 47.2011 38.45 47.2011 39.42C47.2011 40.41 46.3411 41.09 45.2411 41.09C44.6811 41.09 44.2711 41.01 43.7811 40.74C43.7211 40.71 43.6811 40.69 43.6311 40.69C43.5511 40.69 43.5211 40.77 43.4711 40.99C43.4511 41.06 43.4111 41.09 43.3611 41.09C43.3211 41.09 43.2711 41.06 43.2711 41C43.2711 40.98 43.2811 40.92 43.3011 40.8C43.3811 40.33 43.4411 39.78 43.4411 39.03C43.4411 38.96 43.4911 38.93 43.5411 38.93C43.5911 38.93 43.6411 38.96 43.6411 39.02C43.7611 40.55 44.5311 40.89 45.2811 40.89C45.9111 40.89 46.2411 40.47 46.2411 39.98C46.2411 39.36 45.6811 39.16 45.0611 38.94C44.3211 38.68 43.4911 38.39 43.4911 37.29C43.4911 36.31 44.2911 35.65 45.3811 35.65C45.6811 35.65 45.9211 35.73 46.1111 35.8C46.2811 35.86 46.3911 35.9 46.5011 35.9C46.5911 35.9 46.6511 35.83 46.7011 35.74C46.7211 35.71 46.7411 35.7 46.7711 35.7C46.8111 35.7 46.8411 35.73 46.8411 35.77ZM53.0377 37.77H49.6977C49.6777 37.96 49.6677 38.15 49.6677 38.34C49.6677 39.24 49.8377 40.08 50.2577 40.53C50.4777 40.77 50.7777 40.87 51.0777 40.87C52.1277 40.87 52.6177 40.12 52.8177 39.74C52.8377 39.7 52.8777 39.68 52.9077 39.68C52.9677 39.68 53.0277 39.72 53.0277 39.78C53.0277 39.81 53.0277 39.83 53.0077 39.86C52.6677 40.47 52.0477 41.1 50.8577 41.1C49.7277 41.1 48.2977 40.22 48.2977 38.53C48.2977 36.71 49.6877 35.65 50.9277 35.65C52.2177 35.65 53.0377 36.51 53.0377 37.62V37.77ZM49.7177 37.57H51.5277C51.7477 37.57 51.7777 37.52 51.7777 37.32C51.7777 36.88 51.6677 36.41 51.4677 36.16C51.3077 35.94 51.0477 35.85 50.8377 35.85C50.5677 35.85 50.3477 35.92 50.1477 36.18C49.9377 36.46 49.7877 36.99 49.7177 37.57ZM56.0122 36.06V39.61C56.0122 40.43 56.2622 40.67 56.7222 40.67C57.1022 40.67 57.4122 40.4 57.5922 39.74C57.6022 39.69 57.6422 39.67 57.6822 39.67C57.7322 39.67 57.7822 39.71 57.7822 39.77C57.7822 39.86 57.5122 41.1 56.3222 41.1C55.4822 41.1 54.7722 40.67 54.7722 39.59V36.74C54.7722 36.19 54.6822 36.05 54.3122 36.05H53.9422C53.8722 36.05 53.8422 36 53.8422 35.95C53.8422 35.9 53.8722 35.85 53.9422 35.85H54.1022C54.7922 35.85 55.5622 35.39 55.8122 34.18C55.8222 34.11 55.8722 34.08 55.9122 34.08C55.9622 34.08 56.0122 34.12 56.0122 34.19V35.85H57.4222C57.5022 35.85 57.5422 35.9 57.5422 35.95C57.5422 36.01 57.5022 36.06 57.4222 36.06H56.0122Z" fill="#EFEEEA"/>
</svg>
