<svg width="122" height="73" viewBox="0 0 122 73" fill="none" xmlns="http://www.w3.org/2000/svg">
<path d="M32.5615 19.039H32.8001C33.3041 16.6559 34.7627 15.0226 36.752 15.0226C38.3432 15.0226 39.192 15.933 39.192 17.0308C39.192 18.2625 38.4227 19.0926 37.2822 19.0926C36.2479 19.0926 35.6379 18.4232 35.6379 17.5396C35.6379 16.7095 36.1684 16.1204 36.752 15.933C36.9375 15.8794 36.9906 15.8259 36.9906 15.7188C36.9906 15.6384 36.8846 15.5581 36.5927 15.5581C34.7894 15.5581 33.092 17.4592 33.092 21.2347V26.9915C33.092 28.732 33.1449 28.8125 35.5849 28.9196C35.7972 28.9196 35.8767 29.0533 35.8767 29.1873C35.8767 29.3213 35.7972 29.455 35.5849 29.455C34.8158 29.455 34.0467 29.4283 33.251 29.3748C32.5349 29.3479 31.8189 29.3213 31.421 29.3213C31.0232 29.3213 30.3601 29.3479 29.7237 29.3748C29.0341 29.4283 28.371 29.455 28.0263 29.455C27.8406 29.455 27.7346 29.3213 27.7346 29.1873C27.7346 29.0533 27.8406 28.9196 28.0263 28.9196C29.6175 28.8125 29.7501 28.7589 29.7501 26.9915V18.1822C29.7501 16.2811 29.6175 16.2007 28.371 16.2007H27.9201C27.7346 16.2007 27.6284 16.0668 27.6284 15.933C27.6284 15.7991 27.7346 15.6652 27.9201 15.6652C30.0153 15.6652 31.5272 15.5313 32.482 15.21C32.641 15.1564 32.6675 15.1564 32.7472 15.1564C32.9063 15.1564 33.0389 15.2636 33.0389 15.451C33.0389 15.5581 32.9594 16.0133 32.8798 16.3614C32.7472 17.004 32.641 18.0215 32.5615 19.039ZM53.4856 20.8063H44.6273C44.5742 21.315 44.5478 21.8238 44.5478 22.3325C44.5478 24.7424 44.9985 26.9915 46.1125 28.1966C46.6959 28.8391 47.4916 29.1069 48.2873 29.1069C51.0721 29.1069 52.3716 27.0988 52.9021 26.0813C52.9552 25.9742 53.0611 25.9206 53.1406 25.9206C53.2999 25.9206 53.459 26.0277 53.459 26.1883C53.459 26.2685 53.459 26.3223 53.4059 26.4025C52.5042 28.036 50.8599 29.7227 47.7037 29.7227C44.7068 29.7227 40.9142 27.3665 40.9142 22.8412C40.9142 17.968 44.6007 15.1297 47.8895 15.1297C51.3107 15.1297 53.4856 17.4324 53.4856 20.4046V20.8063ZM44.6804 20.2707H49.4807C50.0642 20.2707 50.1437 20.1368 50.1437 19.6013C50.1437 18.4232 49.8521 17.1647 49.3216 16.4953C48.8973 15.9062 48.2078 15.6652 47.6506 15.6652C46.9347 15.6652 46.3511 15.8526 45.8206 16.5488C45.2637 17.2986 44.8659 18.7177 44.6804 20.2707ZM65.8831 15.451L65.8036 16.2007C65.6974 17.0308 65.6445 18.1018 65.6445 19.28C65.6445 19.4942 65.5119 19.5746 65.3793 19.5746C65.2467 19.5746 65.114 19.4942 65.114 19.3603C64.9548 17.486 64 15.6652 61.7722 15.6652C60.2605 15.6652 59.3588 16.8701 59.3588 18.1286C59.3588 20.003 61.0295 20.5921 62.8067 21.2079C64.7693 21.9041 66.8379 22.6271 66.8379 25.2243C66.8379 27.8753 64.5571 29.6961 61.6395 29.6961C60.1545 29.6961 59.0671 29.4819 57.7674 28.7589C57.6083 28.6785 57.5022 28.625 57.3695 28.625C57.1574 28.625 57.0779 28.8391 56.9452 29.4283C56.8921 29.6156 56.7862 29.6961 56.6536 29.6961C56.5474 29.6961 56.4148 29.6156 56.4148 29.455C56.4148 29.4015 56.4414 29.2408 56.4945 28.9196C56.7067 27.6609 56.8657 26.1883 56.8657 24.1801C56.8657 23.9926 56.9983 23.9124 57.131 23.9124C57.2636 23.9124 57.3962 23.9926 57.3962 24.1534C57.7145 28.2501 59.7567 29.1604 61.7457 29.1604C63.4167 29.1604 64.2919 28.036 64.2919 26.7238C64.2919 25.0637 62.8067 24.5282 61.1622 23.939C59.1995 23.2429 56.9983 22.4664 56.9983 19.521C56.9983 16.8969 59.12 15.1297 62.011 15.1297C62.8067 15.1297 63.4431 15.3439 63.9471 15.5313C64.3979 15.692 64.6895 15.7991 64.9814 15.7991C65.22 15.7991 65.3793 15.6116 65.5119 15.3706C65.5648 15.2903 65.6179 15.2636 65.6974 15.2636C65.8036 15.2636 65.8831 15.3439 65.8831 15.451ZM82.3176 20.8063H73.4593C73.4062 21.315 73.3798 21.8238 73.3798 22.3325C73.3798 24.7424 73.8307 26.9915 74.9445 28.1966C75.5281 28.8391 76.3236 29.1069 77.1193 29.1069C79.9041 29.1069 81.2036 27.0988 81.7341 26.0813C81.7872 25.9742 81.8933 25.9206 81.9729 25.9206C82.1319 25.9206 82.291 26.0277 82.291 26.1883C82.291 26.2685 82.291 26.3223 82.2381 26.4025C81.3362 28.036 79.6919 29.7227 76.5357 29.7227C73.5388 29.7227 69.7462 27.3665 69.7462 22.8412C69.7462 17.968 73.4329 15.1297 76.7214 15.1297C80.1429 15.1297 82.3176 17.4324 82.3176 20.4046V20.8063ZM73.5124 20.2707H78.3129C78.8962 20.2707 78.9757 20.1368 78.9757 19.6013C78.9757 18.4232 78.6841 17.1647 78.1536 16.4953C77.7293 15.9062 77.0398 15.6652 76.4829 15.6652C75.7667 15.6652 75.1833 15.8526 74.6529 16.5488C74.0957 17.2986 73.6981 18.7177 73.5124 20.2707ZM90.2065 16.2275V25.7331C90.2065 27.9289 90.8696 28.5714 92.0896 28.5714C93.0972 28.5714 93.9196 27.8484 94.397 26.0813C94.4234 25.9473 94.5296 25.8937 94.6356 25.8937C94.7682 25.8937 94.9008 26.0008 94.9008 26.1615C94.9008 26.4025 94.1848 29.7227 91.0287 29.7227C88.8008 29.7227 86.9177 28.5714 86.9177 25.6796V18.0483C86.9177 16.5756 86.6791 16.2007 85.6977 16.2007H84.7165C84.5308 16.2007 84.4513 16.0668 84.4513 15.933C84.4513 15.7991 84.5308 15.6652 84.7165 15.6652H85.1408C86.9708 15.6652 89.0129 14.4335 89.676 11.1935C89.7025 11.0061 89.8351 10.9258 89.9413 10.9258C90.0739 10.9258 90.2065 11.0329 90.2065 11.2203V15.6652H93.946C94.1582 15.6652 94.2644 15.7991 94.2644 15.933C94.2644 16.0936 94.1582 16.2275 93.946 16.2275H90.2065Z" fill="#3A486D"/>
<path d="M0 45.5205H122" stroke="#3A486D"/>
<path d="M27.1192 57.4092C27.0715 57.5538 27.0236 57.7707 26.9879 57.9393C26.7851 58.9514 26.5822 60.8553 26.5822 62.5061C26.5822 64.0725 26.9163 65.5184 27.2862 66.651L26.415 66.9162C26.0689 65.8437 25.7467 64.1328 25.7467 62.6024C25.7467 60.9518 25.9855 58.9998 26.0928 57.9634C26.1168 57.7465 26.1287 57.5297 26.1287 57.3731L27.1192 57.4092ZM25.1977 58.8913C27.2981 58.8913 29.3749 58.7225 31.0219 58.3491L31.0338 59.2406C29.3152 59.542 26.964 59.7227 25.1857 59.7227C24.6727 59.7227 23.7416 59.6744 23.2523 59.6504L23.2285 58.7467C23.6463 58.819 24.6846 58.8913 25.1977 58.8913ZM30.1744 60.3131C30.1028 60.4696 29.9955 60.795 29.9239 60.9879C29.2196 63.2169 28.0263 64.8919 26.7731 65.8679C26.0092 66.4582 25.0545 66.904 24.2072 66.904C23.4194 66.904 22.7988 66.4221 22.7988 65.398C22.7988 63.7471 24.3146 62.0482 26.0809 61.3614C26.8804 61.048 27.8471 60.8673 28.623 60.8673C30.8786 60.8673 32.2988 62.1928 32.2988 63.8798C32.2988 65.6027 31.1651 67.1089 28.3961 67.5547L27.8831 66.7474C30.0312 66.5064 31.368 65.3858 31.368 63.8314C31.368 62.6627 30.3893 61.6386 28.611 61.6386C27.6086 61.6386 26.7254 61.9278 26.1168 62.2047C24.768 62.8073 23.6939 64.1328 23.6939 65.2412C23.6939 65.7353 23.9328 65.9763 24.3742 65.9763C24.9709 65.9763 25.7467 65.6388 26.5106 64.9642C27.5726 64.0243 28.5514 62.723 29.1004 60.771C29.148 60.5903 29.2077 60.2649 29.2196 60.072L30.1744 60.3131ZM40.2593 57.4693C40.1877 57.7346 40.1043 58.1923 40.0564 58.4214C39.8775 59.2889 39.6269 60.6504 39.2925 61.8555C38.8631 63.5664 38.0633 66.0606 37.4309 67.3739L36.3926 67.0246C37.1085 65.7714 37.944 63.3253 38.3977 61.6264C38.6839 60.518 38.9943 58.9998 39.0779 58.373C39.1256 58.0357 39.1495 57.6261 39.1256 57.3731L40.2593 57.4693ZM37.6218 59.4817C38.9347 59.4817 40.689 59.2648 42.169 58.8913V59.8312C40.689 60.1685 38.8868 60.3734 37.5979 60.3734C37.0728 60.3734 36.6551 60.3612 36.2134 60.325L36.1897 59.3852C36.7507 59.4575 37.1801 59.4817 37.6218 59.4817ZM41.3932 61.1325C42.0138 61.0722 42.8134 61.036 43.5772 61.036C44.2695 61.036 44.9974 61.0602 45.642 61.1325L45.618 62.0482C44.9974 61.9759 44.3052 61.9036 43.6012 61.9036C42.8613 61.9036 42.1211 61.9517 41.3932 62.0362V61.1325ZM41.6318 64.0605C41.5364 64.4581 41.4648 64.8316 41.4648 65.1449C41.4648 65.7111 41.787 66.2655 43.4817 66.2655C44.2695 66.2655 45.081 66.181 45.8209 66.0364L45.7852 67.0005C45.1406 67.0969 44.3411 67.1692 43.4699 67.1692C41.5961 67.1692 40.5697 66.5909 40.5697 65.398C40.5697 64.94 40.6413 64.4821 40.7486 63.976L41.6318 64.0605ZM54.9359 57.3851C54.9122 57.59 54.8882 57.8308 54.8762 58.1923C54.8525 58.6744 54.8525 60.2889 54.8525 61.301C54.8525 62.8916 55.0315 65.0004 55.0315 65.8076C55.0315 66.651 54.4825 67.5065 52.931 67.5065C51.2124 67.5065 50.2694 66.892 50.2694 65.7233C50.2694 64.6267 51.3077 63.8917 53.0264 63.8917C55.5448 63.8917 57.5139 65.2654 58.4328 66.0245L57.8838 66.8801C56.8097 65.8799 55.0434 64.675 52.919 64.675C51.7732 64.675 51.1645 65.1208 51.1645 65.675C51.1645 66.2414 51.6301 66.651 52.8115 66.651C53.5037 66.651 54.0887 66.4463 54.0887 65.6027C54.0887 64.675 53.9692 62.3615 53.9692 61.301C53.9692 60.2166 53.9692 58.9514 53.9692 58.108C53.9692 57.9031 53.9574 57.5416 53.9215 57.3851H54.9359ZM50.3769 58.6864C51.1408 58.831 52.6326 58.9514 53.4202 58.9514C54.9359 58.9514 56.5352 58.843 58.0867 58.5899V59.4697C56.7381 59.6263 55.0315 59.7828 53.4321 59.7828C52.6086 59.7828 51.1408 59.6744 50.3889 59.5781L50.3769 58.6864ZM50.3173 61.2529C51.1645 61.3855 52.5253 61.4698 53.3128 61.4698C55.0434 61.4698 56.6308 61.3494 58.1822 61.1203V62.024C56.5592 62.2289 55.1031 62.3132 53.3128 62.3132C52.4893 62.3132 51.1765 62.2531 50.3293 62.1566L50.3173 61.2529ZM70.2363 58.7467C70.2363 59.6263 70.2363 60.783 70.2363 61.5301C70.2363 63.0483 70.3915 64.7351 70.3915 65.6872C70.3915 66.6751 69.7112 67.2415 68.4343 67.2415C67.1095 67.2415 66.1427 66.6871 66.1427 65.5545C66.1427 64.7112 66.835 63.9037 68.4223 63.9037C70.5347 63.9037 71.9788 64.952 72.8739 65.7595L72.3726 66.6028C71.2389 65.4219 69.8068 64.6267 68.3984 64.6267C67.5392 64.6267 66.9782 64.9762 66.9782 65.5064C66.9782 66.0968 67.5152 66.4101 68.3507 66.4101C69.2815 66.4101 69.5203 65.928 69.5203 65.2773C69.5203 64.6027 69.3771 62.8193 69.3771 61.5663C69.3771 60.7107 69.3771 59.4094 69.3771 58.7467H70.2363ZM66.4888 61.0964C68.6372 61.2649 70.8332 61.1203 72.4562 60.9276V61.8071C70.9285 61.9759 68.6252 62.0963 66.5008 61.9759L66.4888 61.0964ZM66.6797 58.3007C68.6012 58.4575 70.7972 58.3369 72.1937 58.1322V58.9876C70.8212 59.1322 68.6132 59.2528 66.6797 59.1563V58.3007ZM64.627 57.8069C64.5554 58.0116 64.46 58.3972 64.4241 58.6141C64.1855 59.7347 63.8394 62.0602 63.8394 63.4098C63.8394 64.0002 63.8751 64.5182 63.9587 65.1088C64.1376 64.5666 64.4361 63.7953 64.6509 63.3134L65.1283 63.711C64.8299 64.5424 64.4121 65.7834 64.2809 66.374C64.2452 66.5425 64.2212 66.7716 64.2332 66.904C64.2332 67.0246 64.2571 67.2054 64.2689 67.3258L63.4097 67.3981C63.1709 66.5305 62.9563 65.205 62.9563 63.5784C62.9563 61.8071 63.35 59.5659 63.4933 58.566C63.541 58.2888 63.5766 57.9634 63.5766 57.7104L64.627 57.8069ZM82.6963 60.0962C83.0065 60.5419 83.4959 61.4095 83.7347 61.8555L83.0781 62.1446C82.8276 61.6625 82.3741 60.8311 82.0757 60.3612L82.6963 60.0962ZM84.0928 59.542C84.403 59.9636 84.8923 60.795 85.1548 61.2771L84.4985 61.5663C84.224 61.0602 83.7823 60.2889 83.4602 59.8431L84.0928 59.542ZM83.3169 58.0599C83.0661 58.2526 82.6963 58.578 82.4934 58.7467C81.6819 59.4697 79.9633 60.8311 79.0801 61.5783C78.364 62.2047 78.352 62.3855 79.1278 63.0362C80.2138 63.9399 82.3143 65.651 83.5795 66.9401L82.732 67.7234C82.4814 67.4343 82.2069 67.1451 81.9205 66.8439C81.0733 65.9764 79.2591 64.4098 78.1491 63.4821C77.0154 62.5301 77.1586 62.012 78.2327 61.0964C79.1398 60.3372 80.9418 58.8913 81.7535 58.0719C81.9801 57.8308 82.2905 57.4815 82.4338 57.2646L83.3169 58.0599ZM92.626 57.5538C92.5663 57.9515 92.5306 58.373 92.5067 58.7707C92.459 60.1323 92.3634 62.988 92.3634 64.7835C92.3634 66.1087 93.187 66.5667 94.3209 66.5667C96.5049 66.5667 97.7461 65.3377 98.6053 64.0844L99.2736 64.9039C98.4621 66.0486 96.9107 67.5547 94.2969 67.5547C92.5783 67.5547 91.3967 66.8439 91.3967 64.8677C91.3967 63.0845 91.516 60.0359 91.516 58.7707C91.516 58.3249 91.4803 57.9031 91.4087 57.5538H92.626Z" fill="#3A486D"/>
</svg>
