<svg width="47" height="27" viewBox="0 0 47 27" fill="none" xmlns="http://www.w3.org/2000/svg">
<path d="M12.2826 7.11H12.3726C12.5626 6.22 13.1126 5.61 13.8626 5.61C14.4626 5.61 14.7826 5.95 14.7826 6.36C14.7826 6.82 14.4926 7.13 14.0626 7.13C13.6726 7.13 13.4426 6.88 13.4426 6.55C13.4426 6.24 13.6426 6.02 13.8626 5.95C13.9326 5.93 13.9526 5.91 13.9526 5.87C13.9526 5.84 13.9126 5.81 13.8026 5.81C13.1226 5.81 12.4826 6.52 12.4826 7.93V10.08C12.4826 10.73 12.5026 10.76 13.4226 10.8C13.5026 10.8 13.5326 10.85 13.5326 10.9C13.5326 10.95 13.5026 11 13.4226 11C13.1326 11 12.8426 10.99 12.5426 10.97C12.2726 10.96 12.0026 10.95 11.8526 10.95C11.7026 10.95 11.4526 10.96 11.2126 10.97C10.9526 10.99 10.7026 11 10.5726 11C10.5026 11 10.4626 10.95 10.4626 10.9C10.4626 10.85 10.5026 10.8 10.5726 10.8C11.1726 10.76 11.2226 10.74 11.2226 10.08V6.79C11.2226 6.08 11.1726 6.05 10.7026 6.05H10.5326C10.4626 6.05 10.4226 6 10.4226 5.95C10.4226 5.9 10.4626 5.85 10.5326 5.85C11.3226 5.85 11.8926 5.8 12.2526 5.68C12.3126 5.66 12.3226 5.66 12.3526 5.66C12.4126 5.66 12.4626 5.7 12.4626 5.77C12.4626 5.81 12.4326 5.98 12.4026 6.11C12.3526 6.35 12.3126 6.73 12.2826 7.11ZM20.1719 7.77H16.8319C16.8119 7.96 16.8019 8.15 16.8019 8.34C16.8019 9.24 16.9719 10.08 17.3919 10.53C17.6119 10.77 17.9119 10.87 18.2119 10.87C19.2619 10.87 19.7519 10.12 19.9519 9.74C19.9719 9.7 20.0119 9.68 20.0419 9.68C20.1019 9.68 20.1619 9.72 20.1619 9.78C20.1619 9.81 20.1619 9.83 20.1419 9.86C19.8019 10.47 19.1819 11.1 17.9919 11.1C16.8619 11.1 15.4319 10.22 15.4319 8.53C15.4319 6.71 16.8219 5.65 18.0619 5.65C19.3519 5.65 20.1719 6.51 20.1719 7.62V7.77ZM16.8519 7.57H18.6619C18.8819 7.57 18.9119 7.52 18.9119 7.32C18.9119 6.88 18.8019 6.41 18.6019 6.16C18.4419 5.94 18.1819 5.85 17.9719 5.85C17.7019 5.85 17.4819 5.92 17.2819 6.18C17.0719 6.46 16.9219 6.99 16.8519 7.57ZM24.8465 5.77L24.8165 6.05C24.7765 6.36 24.7565 6.76 24.7565 7.2C24.7565 7.28 24.7065 7.31 24.6565 7.31C24.6065 7.31 24.5565 7.28 24.5565 7.23C24.4965 6.53 24.1365 5.85 23.2965 5.85C22.7265 5.85 22.3865 6.3 22.3865 6.77C22.3865 7.47 23.0165 7.69 23.6865 7.92C24.4265 8.18 25.2065 8.45 25.2065 9.42C25.2065 10.41 24.3465 11.09 23.2465 11.09C22.6865 11.09 22.2765 11.01 21.7865 10.74C21.7265 10.71 21.6865 10.69 21.6365 10.69C21.5565 10.69 21.5265 10.77 21.4765 10.99C21.4565 11.06 21.4165 11.09 21.3665 11.09C21.3265 11.09 21.2765 11.06 21.2765 11C21.2765 10.98 21.2865 10.92 21.3065 10.8C21.3865 10.33 21.4465 9.78 21.4465 9.03C21.4465 8.96 21.4965 8.93 21.5465 8.93C21.5965 8.93 21.6465 8.96 21.6465 9.02C21.7665 10.55 22.5365 10.89 23.2865 10.89C23.9165 10.89 24.2465 10.47 24.2465 9.98C24.2465 9.36 23.6865 9.16 23.0665 8.94C22.3265 8.68 21.4965 8.39 21.4965 7.29C21.4965 6.31 22.2965 5.65 23.3865 5.65C23.6865 5.65 23.9265 5.73 24.1165 5.8C24.2865 5.86 24.3965 5.9 24.5065 5.9C24.5965 5.9 24.6565 5.83 24.7065 5.74C24.7265 5.71 24.7465 5.7 24.7765 5.7C24.8165 5.7 24.8465 5.73 24.8465 5.77ZM31.043 7.77H27.703C27.683 7.96 27.673 8.15 27.673 8.34C27.673 9.24 27.843 10.08 28.263 10.53C28.483 10.77 28.783 10.87 29.083 10.87C30.133 10.87 30.623 10.12 30.823 9.74C30.843 9.7 30.883 9.68 30.913 9.68C30.973 9.68 31.033 9.72 31.033 9.78C31.033 9.81 31.033 9.83 31.013 9.86C30.673 10.47 30.053 11.1 28.863 11.1C27.733 11.1 26.303 10.22 26.303 8.53C26.303 6.71 27.693 5.65 28.933 5.65C30.223 5.65 31.043 6.51 31.043 7.62V7.77ZM27.723 7.57H29.533C29.753 7.57 29.783 7.52 29.783 7.32C29.783 6.88 29.673 6.41 29.473 6.16C29.313 5.94 29.053 5.85 28.843 5.85C28.573 5.85 28.353 5.92 28.153 6.18C27.943 6.46 27.793 6.99 27.723 7.57ZM34.0176 6.06V9.61C34.0176 10.43 34.2676 10.67 34.7276 10.67C35.1076 10.67 35.4176 10.4 35.5976 9.74C35.6076 9.69 35.6476 9.67 35.6876 9.67C35.7376 9.67 35.7876 9.71 35.7876 9.77C35.7876 9.86 35.5176 11.1 34.3276 11.1C33.4876 11.1 32.7776 10.67 32.7776 9.59V6.74C32.7776 6.19 32.6876 6.05 32.3176 6.05H31.9476C31.8776 6.05 31.8476 6 31.8476 5.95C31.8476 5.9 31.8776 5.85 31.9476 5.85H32.1076C32.7976 5.85 33.5676 5.39 33.8176 4.18C33.8276 4.11 33.8776 4.08 33.9176 4.08C33.9676 4.08 34.0176 4.12 34.0176 4.19V5.85H35.4276C35.5076 5.85 35.5476 5.9 35.5476 5.95C35.5476 6.01 35.5076 6.06 35.4276 6.06H34.0176Z" fill="#3A486D"/>
<path d="M0 17H46.0109" stroke="#3A486D"/>
<path d="M10.2305 21.4405C10.2125 21.4945 10.1945 21.5755 10.181 21.6385C10.1045 22.0165 10.028 22.7275 10.028 23.344C10.028 23.929 10.154 24.469 10.2935 24.892L9.96499 24.991C9.83449 24.5905 9.71299 23.9515 9.71299 23.38C9.71299 22.7635 9.80299 22.0345 9.84349 21.6475C9.85249 21.5665 9.85699 21.4855 9.85699 21.427L10.2305 21.4405ZM9.50599 21.994C10.298 21.994 11.081 21.931 11.702 21.7915L11.7065 22.1245C11.0585 22.237 10.172 22.3045 9.50149 22.3045C9.30799 22.3045 8.95699 22.2865 8.77249 22.2775L8.76349 21.94C8.92099 21.967 9.31249 21.994 9.50599 21.994ZM11.3825 22.525C11.3555 22.5835 11.315 22.705 11.288 22.777C11.0225 23.6095 10.5725 24.235 10.1 24.5995C9.81199 24.82 9.45199 24.9865 9.13249 24.9865C8.83549 24.9865 8.60149 24.8065 8.60149 24.424C8.60149 23.8075 9.17299 23.173 9.83899 22.9165C10.1405 22.7995 10.505 22.732 10.7975 22.732C11.648 22.732 12.1835 23.227 12.1835 23.857C12.1835 24.5005 11.756 25.063 10.712 25.2295L10.5185 24.928C11.3285 24.838 11.8325 24.4195 11.8325 23.839C11.8325 23.4025 11.4635 23.02 10.793 23.02C10.415 23.02 10.082 23.128 9.85249 23.2315C9.34399 23.4565 8.93899 23.9515 8.93899 24.3655C8.93899 24.55 9.02899 24.64 9.19549 24.64C9.42049 24.64 9.71299 24.514 10.001 24.262C10.4015 23.911 10.7705 23.425 10.9775 22.696C10.9955 22.6285 11.018 22.507 11.0225 22.435L11.3825 22.525ZM15.185 21.463C15.158 21.562 15.1265 21.733 15.1085 21.8185C15.041 22.1425 14.9465 22.651 14.8205 23.101C14.6585 23.74 14.357 24.6715 14.1185 25.162L13.727 25.0315C13.997 24.5635 14.312 23.65 14.483 23.0155C14.591 22.6015 14.708 22.0345 14.7395 21.8005C14.7575 21.6745 14.7665 21.5215 14.7575 21.427L15.185 21.463ZM14.1905 22.2145C14.6855 22.2145 15.347 22.1335 15.905 21.994V22.345C15.347 22.471 14.6675 22.5475 14.1815 22.5475C13.9835 22.5475 13.826 22.543 13.6595 22.5295L13.6505 22.1785C13.862 22.2055 14.024 22.2145 14.1905 22.2145ZM15.6125 22.831C15.8465 22.8085 16.148 22.795 16.436 22.795C16.697 22.795 16.9715 22.804 17.2145 22.831L17.2055 23.173C16.9715 23.146 16.7105 23.119 16.445 23.119C16.166 23.119 15.887 23.137 15.6125 23.1685V22.831ZM15.7025 23.9245C15.6665 24.073 15.6395 24.2125 15.6395 24.3295C15.6395 24.541 15.761 24.748 16.4 24.748C16.697 24.748 17.003 24.7165 17.282 24.6625L17.2685 25.0225C17.0255 25.0585 16.724 25.0855 16.3955 25.0855C15.689 25.0855 15.302 24.8695 15.302 24.424C15.302 24.253 15.329 24.082 15.3695 23.893L15.7025 23.9245ZM20.7188 21.4315C20.7098 21.508 20.7008 21.598 20.6963 21.733C20.6873 21.913 20.6873 22.516 20.6873 22.894C20.6873 23.488 20.7548 24.2755 20.7548 24.577C20.7548 24.892 20.5478 25.2115 19.9628 25.2115C19.3148 25.2115 18.9593 24.982 18.9593 24.5455C18.9593 24.136 19.3508 23.8615 19.9988 23.8615C20.9483 23.8615 21.6908 24.3745 22.0373 24.658L21.8303 24.9775C21.4253 24.604 20.7593 24.154 19.9583 24.154C19.5263 24.154 19.2968 24.3205 19.2968 24.5275C19.2968 24.739 19.4723 24.892 19.9178 24.892C20.1788 24.892 20.3993 24.8155 20.3993 24.5005C20.3993 24.154 20.3543 23.29 20.3543 22.894C20.3543 22.489 20.3543 22.0165 20.3543 21.7015C20.3543 21.625 20.3498 21.49 20.3363 21.4315H20.7188ZM18.9998 21.9175C19.2878 21.9715 19.8503 22.0165 20.1473 22.0165C20.7188 22.0165 21.3218 21.976 21.9068 21.8815V22.21C21.3983 22.2685 20.7548 22.327 20.1518 22.327C19.8413 22.327 19.2878 22.2865 19.0043 22.2505L18.9998 21.9175ZM18.9773 22.876C19.2968 22.9255 19.8098 22.957 20.1068 22.957C20.7593 22.957 21.3578 22.912 21.9428 22.8265V23.164C21.3308 23.2405 20.7818 23.272 20.1068 23.272C19.7963 23.272 19.3013 23.2495 18.9818 23.2135L18.9773 22.876ZM26.4878 21.94C26.4878 22.2685 26.4878 22.7005 26.4878 22.9795C26.4878 23.5465 26.5463 24.1765 26.5463 24.532C26.5463 24.901 26.2898 25.1125 25.8083 25.1125C25.3088 25.1125 24.9443 24.9055 24.9443 24.4825C24.9443 24.1675 25.2053 23.866 25.8038 23.866C26.6003 23.866 27.1448 24.2575 27.4823 24.559L27.2933 24.874C26.8658 24.433 26.3258 24.136 25.7948 24.136C25.4708 24.136 25.2593 24.2665 25.2593 24.4645C25.2593 24.685 25.4618 24.802 25.7768 24.802C26.1278 24.802 26.2178 24.622 26.2178 24.379C26.2178 24.127 26.1638 23.461 26.1638 22.993C26.1638 22.6735 26.1638 22.1875 26.1638 21.94H26.4878ZM25.0748 22.8175C25.8848 22.8805 26.7128 22.8265 27.3248 22.7545V23.083C26.7488 23.146 25.8803 23.191 25.0793 23.146L25.0748 22.8175ZM25.1468 21.7735C25.8713 21.832 26.6993 21.787 27.2258 21.7105V22.03C26.7083 22.084 25.8758 22.129 25.1468 22.093V21.7735ZM24.3728 21.589C24.3458 21.6655 24.3098 21.8095 24.2963 21.8905C24.2063 22.309 24.0758 23.1775 24.0758 23.6815C24.0758 23.902 24.0893 24.0955 24.1208 24.316C24.1883 24.1135 24.3008 23.8255 24.3818 23.6455L24.5618 23.794C24.4493 24.1045 24.2918 24.568 24.2423 24.7885C24.2288 24.8515 24.2198 24.937 24.2243 24.9865C24.2243 25.0315 24.2333 25.099 24.2378 25.144L23.9138 25.171C23.8238 24.847 23.7428 24.352 23.7428 23.7445C23.7428 23.083 23.8913 22.246 23.9453 21.8725C23.9633 21.769 23.9768 21.6475 23.9768 21.553L24.3728 21.589ZM31.1858 22.444C31.3028 22.6105 31.4873 22.9345 31.5773 23.101L31.3298 23.209C31.2353 23.029 31.0643 22.7185 30.9518 22.543L31.1858 22.444ZM31.7123 22.237C31.8293 22.3945 32.0138 22.705 32.1128 22.885L31.8653 22.993C31.7618 22.804 31.5953 22.516 31.4738 22.3495L31.7123 22.237ZM31.4198 21.6835C31.3253 21.7555 31.1858 21.877 31.1093 21.94C30.8033 22.21 30.1553 22.7185 29.8223 22.9975C29.5523 23.2315 29.5478 23.299 29.8403 23.542C30.2498 23.8795 31.0418 24.5185 31.5188 25L31.1993 25.2925C31.1048 25.1845 31.0013 25.0765 30.8933 24.964C30.5738 24.64 29.8898 24.055 29.4713 23.7085C29.0438 23.353 29.0978 23.1595 29.5028 22.8175C29.8448 22.534 30.5243 21.994 30.8303 21.688C30.9158 21.598 31.0328 21.4675 31.0868 21.3865L31.4198 21.6835ZM34.9298 21.4945C34.9073 21.643 34.8938 21.8005 34.8848 21.949C34.8668 22.4575 34.8308 23.524 34.8308 24.1945C34.8308 24.6895 35.1413 24.8605 35.5688 24.8605C36.3923 24.8605 36.8603 24.4015 37.1843 23.9335L37.4363 24.2395C37.1303 24.667 36.5453 25.2295 35.5598 25.2295C34.9118 25.2295 34.4663 24.964 34.4663 24.226C34.4663 23.56 34.5113 22.4215 34.5113 21.949C34.5113 21.7825 34.4978 21.625 34.4708 21.4945H34.9298Z" fill="#3A486D"/>
</svg>
