<svg width="26" height="27" viewBox="0 0 26 27" fill="none" xmlns="http://www.w3.org/2000/svg">
<path d="M9.99951 17.5C10.8495 18.13 11.8845 18.5 12.9995 18.5C14.1145 18.5 15.1495 18.13 15.9995 17.5" stroke="#2E2E2E" stroke-linecap="round"/>
<path d="M16.4995 11.999C16.4995 12.328 16.4096 12.6035 16.2905 12.7822C16.169 12.9645 16.0562 12.999 15.9995 12.999C15.9429 12.999 15.8301 12.9645 15.7085 12.7822C15.5894 12.6035 15.4995 12.328 15.4995 11.999C15.4995 11.6701 15.5894 11.3946 15.7085 11.2159C15.8301 11.0336 15.9429 10.999 15.9995 10.999C16.0562 10.999 16.169 11.0336 16.2905 11.2159C16.4096 11.3946 16.4995 11.6701 16.4995 11.999Z" fill="black" stroke="#2E2E2E"/>
<path d="M10.501 11.999C10.501 12.3283 10.4111 12.6038 10.2921 12.7823C10.1707 12.9644 10.0579 12.999 10.001 12.999C9.94403 12.999 9.83126 12.9644 9.70989 12.7823C9.59086 12.6038 9.50098 12.3283 9.50098 11.999C9.50098 11.6698 9.59086 11.3943 9.70989 11.2157C9.83126 11.0337 9.94403 10.999 10.001 10.999C10.0579 10.999 10.1707 11.0337 10.2921 11.2157C10.4111 11.3943 10.501 11.6698 10.501 11.999Z" fill="black" stroke="#2E2E2E"/>
<path d="M8 4.83801C9.51952 3.95891 11.2445 3.49731 13 3.50001C18.523 3.50001 23 7.97701 23 13.5C23 19.023 18.523 23.5 13 23.5C7.477 23.5 3 19.023 3 13.5C3 11.679 3.487 9.97001 4.338 8.50001" stroke="#2E2E2E" stroke-linecap="round"/>
</svg>
