<svg width="26" height="27" viewBox="0 0 26 27" fill="none" xmlns="http://www.w3.org/2000/svg">
<path d="M13.6884 16.272L9.53662 17.0194L10.2286 12.812L18.1585 4.90939C18.2872 4.77967 18.4402 4.6767 18.6089 4.60644C18.7775 4.53618 18.9584 4.5 19.1411 4.5C19.3238 4.5 19.5047 4.53618 19.6733 4.60644C19.842 4.6767 19.995 4.77967 20.1237 4.90939L21.5907 6.37643C21.7204 6.50509 21.8233 6.65816 21.8936 6.82681C21.9638 6.99547 22 7.17636 22 7.35907C22 7.54177 21.9638 7.72267 21.8936 7.89132C21.8233 8.05998 21.7204 8.21305 21.5907 8.34171L13.6884 16.272Z" stroke="#2E2E2E" stroke-linecap="round" stroke-linejoin="round"/>
<path d="M19.9152 16.964V21.116C19.9152 21.4831 19.7694 21.8351 19.5099 22.0946C19.2503 22.3542 18.8983 22.5 18.5313 22.5H5.38393C5.01689 22.5 4.66488 22.3542 4.40534 22.0946C4.14581 21.8351 4 21.4831 4 21.116V7.96799C4 7.60093 4.14581 7.2489 4.40534 6.98935C4.66488 6.7298 5.01689 6.58398 5.38393 6.58398H9.53572" stroke="#2E2E2E" stroke-linecap="round" stroke-linejoin="round"/>
</svg>
